<svg version="1.1" id="Layer_1" xmlns="http://www.w3.org/2000/svg" xmlns:xlink="http://www.w3.org/1999/xlink" x="0px" y="0px"
	 width="100%" viewBox="0 0 849 619" enable-background="new 0 0 849 619" xml:space="preserve">
<path fill="#000000" opacity="1.000000" stroke="none" 
	d="
M471.000000,620.000000 
	C314.000000,620.000000 157.500000,620.000000 1.000000,620.000000 
	C1.000000,413.666656 1.000000,207.333328 1.000000,1.000000 
	C284.000000,1.000000 567.000000,1.000000 850.000000,1.000000 
	C850.000000,207.333328 850.000000,413.666656 850.000000,620.000000 
	C723.833313,620.000000 597.666687,620.000000 471.000000,620.000000 
M457.558136,433.892456 
	C479.492065,442.806335 502.037354,447.595581 525.908081,445.067230 
	C545.038818,443.040985 563.183167,438.138947 579.989563,428.655060 
	C592.070435,421.837799 602.587341,413.133362 612.298645,401.889954 
	C602.841919,391.340790 593.503723,380.923889 584.304443,370.661926 
	C578.358765,376.439911 573.574768,381.783569 568.099731,386.287262 
	C546.129578,404.359772 520.874451,409.247528 493.645111,402.676392 
	C469.057251,396.742676 450.154297,382.452179 438.085846,360.005035 
	C428.761932,342.662659 426.833435,323.873535 428.159149,304.442444 
	C429.568298,283.788452 436.990509,266.062592 450.804962,250.548737 
	C480.362762,217.354736 535.868958,213.027405 569.826416,241.770294 
	C574.949219,246.106384 579.760010,250.810959 585.769409,256.309784 
	C593.865784,243.197113 601.738525,230.446609 609.969849,217.115372 
	C603.227051,212.126587 597.417480,207.159912 590.993225,203.187210 
	C557.533447,182.495819 521.203735,176.485031 482.948578,184.460831 
	C438.324402,193.764496 407.612701,220.415619 390.647766,262.619995 
	C380.128296,288.789673 379.070160,316.000671 384.317902,343.396942 
	C388.919800,367.421509 399.999054,388.448578 416.927643,406.136566 
	C428.287567,418.006042 441.848572,426.939789 457.558136,433.892456 
M263.022644,349.500000 
	C262.822357,367.664368 262.665741,385.829346 262.405487,403.992859 
	C262.248566,414.944122 260.693542,425.600739 253.083664,434.164948 
	C250.014313,437.619293 246.133255,440.352417 241.940048,444.007874 
	C270.792114,444.007874 298.850250,444.007874 327.567108,444.007874 
	C312.647644,432.729736 308.068542,423.349823 308.175751,404.936462 
	C308.305786,382.604645 308.473724,360.273071 308.644318,337.941528 
	C308.656464,336.351105 308.825226,334.761902 308.917542,333.232666 
	C329.499603,333.232666 349.585297,333.232666 369.363464,333.232666 
	C369.363464,319.907288 369.363464,306.701569 369.363464,293.217163 
	C368.392883,293.217163 367.431274,293.222900 366.469696,293.216309 
	C348.471161,293.093170 330.472748,292.936523 312.473999,292.878967 
	C309.789764,292.870361 308.232941,292.636078 308.255157,289.162750 
	C308.410675,264.864594 308.337463,240.564987 308.337463,215.570786 
	C311.092255,215.570786 312.870331,215.563950 314.648346,215.571808 
	C342.646637,215.695557 370.645233,215.782669 398.642822,215.999527 
	C401.822876,216.024155 404.109131,215.327744 406.451324,212.863159 
	C418.776886,199.893402 432.900909,189.308487 449.255066,181.837311 
	C450.648376,181.200806 451.877319,180.204529 453.182617,179.375397 
	C453.125061,178.766159 453.067505,178.156937 453.009979,177.547714 
	C417.477661,174.106567 381.751709,175.700089 346.121246,175.232452 
	C310.384521,174.763443 274.636902,175.129379 238.549683,175.129379 
	C239.040756,176.047745 239.120483,176.481537 239.353027,176.591187 
	C256.486145,184.668289 262.643890,199.295242 263.005157,217.036652 
	C263.391785,236.021194 263.403198,255.015625 263.387787,274.005554 
	C263.367645,298.837128 263.160492,323.668549 263.022644,349.500000 
z"/>
<path fill="#FCFCFC" opacity="1.000000" stroke="none" 
	d="
M457.186737,433.805481 
	C441.848572,426.939789 428.287567,418.006042 416.927643,406.136566 
	C399.999054,388.448578 388.919800,367.421509 384.317902,343.396942 
	C379.070160,316.000671 380.128296,288.789673 390.647766,262.619995 
	C407.612701,220.415619 438.324402,193.764496 482.948578,184.460831 
	C521.203735,176.485031 557.533447,182.495819 590.993225,203.187210 
	C597.417480,207.159912 603.227051,212.126587 609.969849,217.115372 
	C601.738525,230.446609 593.865784,243.197113 585.769409,256.309784 
	C579.760010,250.810959 574.949219,246.106384 569.826416,241.770294 
	C535.868958,213.027405 480.362762,217.354736 450.804962,250.548737 
	C436.990509,266.062592 429.568298,283.788452 428.159149,304.442444 
	C426.833435,323.873535 428.761932,342.662659 438.085846,360.005035 
	C450.154297,382.452179 469.057251,396.742676 493.645111,402.676392 
	C520.874451,409.247528 546.129578,404.359772 568.099731,386.287262 
	C573.574768,381.783569 578.358765,376.439911 584.304443,370.661926 
	C593.503723,380.923889 602.841919,391.340790 612.298645,401.889954 
	C602.587341,413.133362 592.070435,421.837799 579.989563,428.655060 
	C563.183167,438.138947 545.038818,443.040985 525.908081,445.067230 
	C502.037354,447.595581 479.492065,442.806335 457.186737,433.805481 
z"/>
<path fill="#FCFCFC" opacity="1.000000" stroke="none" 
	d="
M263.028229,349.000000 
	C263.160492,323.668549 263.367645,298.837128 263.387787,274.005554 
	C263.403198,255.015625 263.391785,236.021194 263.005157,217.036652 
	C262.643890,199.295242 256.486145,184.668289 239.353027,176.591187 
	C239.120483,176.481537 239.040756,176.047745 238.549683,175.129379 
	C274.636902,175.129379 310.384521,174.763443 346.121246,175.232452 
	C381.751709,175.700089 417.477661,174.106567 453.009979,177.547714 
	C453.067505,178.156937 453.125061,178.766159 453.182617,179.375397 
	C451.877319,180.204529 450.648376,181.200806 449.255066,181.837311 
	C432.900909,189.308487 418.776886,199.893402 406.451324,212.863159 
	C404.109131,215.327744 401.822876,216.024155 398.642822,215.999527 
	C370.645233,215.782669 342.646637,215.695557 314.648346,215.571808 
	C312.870331,215.563950 311.092255,215.570786 308.337463,215.570786 
	C308.337463,240.564987 308.410675,264.864594 308.255157,289.162750 
	C308.232941,292.636078 309.789764,292.870361 312.473999,292.878967 
	C330.472748,292.936523 348.471161,293.093170 366.469696,293.216309 
	C367.431274,293.222900 368.392883,293.217163 369.363464,293.217163 
	C369.363464,306.701569 369.363464,319.907288 369.363464,333.232666 
	C349.585297,333.232666 329.499603,333.232666 308.917542,333.232666 
	C308.825226,334.761902 308.656464,336.351105 308.644318,337.941528 
	C308.473724,360.273071 308.305786,382.604645 308.175751,404.936462 
	C308.068542,423.349823 312.647644,432.729736 327.567108,444.007874 
	C298.850250,444.007874 270.792114,444.007874 241.940048,444.007874 
	C246.133255,440.352417 250.014313,437.619293 253.083664,434.164948 
	C260.693542,425.600739 262.248566,414.944122 262.405487,403.992859 
	C262.665741,385.829346 262.822357,367.664368 263.028229,349.000000 
z"/>
</svg>